<svg xmlns="http://www.w3.org/2000/svg" width="137" height="24.972" viewBox="0 0 137 24.972">
  <g id="Group_7" data-name="Group 7" transform="translate(-684 -468)">
    <g id="Group_2" data-name="Group 2">
      <path id="Vector-1" d="M18.431,17.884a2.555,2.555,0,0,1,3.536.017,2.343,2.343,0,0,1-.018,3.411A13.123,13.123,0,0,1,17.77,24a13.3,13.3,0,0,1-4.911.948,13.138,13.138,0,0,1-9.108-3.635A12.359,12.359,0,0,1,0,12.491,12.224,12.224,0,0,1,3.768,3.7a13.22,13.22,0,0,1,14.02-2.688A12.835,12.835,0,0,1,21.967,3.7a2.358,2.358,0,0,1,.018,3.411,2.572,2.572,0,0,1-3.536.017A7.726,7.726,0,0,0,15.9,5.5a8.133,8.133,0,0,0-3-.569A7.973,7.973,0,0,0,7.322,7.133a7.383,7.383,0,0,0,0,10.717,7.976,7.976,0,0,0,5.554,2.223,8.135,8.135,0,0,0,3-.569A7.68,7.68,0,0,0,18.431,17.884Z" transform="translate(684 468.024)" fill="#fff" fill-rule="evenodd"/>
      <path id="Vector-2" d="M2.966.941h8.126a2.547,2.547,0,0,1,2.59,2.5,2.547,2.547,0,0,1-2.59,2.5H2.966a2.547,2.547,0,0,1-2.59-2.5A2.547,2.547,0,0,1,2.966.941Z" transform="translate(694.977 477.047)" fill="#fff" fill-rule="evenodd"/>
      <path id="Vector" d="M1.022,20.934a71.861,71.861,0,0,1,0-16.85A4.486,4.486,0,0,1,3.361.637,4.832,4.832,0,0,1,7.63.4,78.022,78.022,0,0,1,22.757,8.821a4.456,4.456,0,0,1,0,7.34A78.026,78.026,0,0,1,7.63,24.586a4.726,4.726,0,0,1-4.268-.241A4.334,4.334,0,0,1,1.022,20.934Zm4.626-3.911A2.374,2.374,0,0,0,6.9,18.866a2.544,2.544,0,0,0,2.286.121,41.463,41.463,0,0,0,8.144-4.531,2.413,2.413,0,0,0,0-3.963A41.455,41.455,0,0,0,9.184,5.961,2.544,2.544,0,0,0,6.9,6.082a2.374,2.374,0,0,0-1.25,1.844A38.747,38.747,0,0,0,5.647,17.023Z" transform="translate(710.474 467.988)" fill="#fff" fill-rule="evenodd"/>
    </g>
    <text id="connect" transform="translate(739 487)" fill="#fff" font-size="20" font-family="GothamRounded-Bold, Gotham Rounded" font-weight="700"><tspan x="0" y="0">connect</tspan></text>
  </g>
</svg>
